HIERARCHY
ROOT RootJoint
{
    OFFSET   0.000000   0.000000   0.000000
    CHANNELS 6 Xposition Yposition Zposition Xrotation Yrotation Zrotation
    JOINT pelvis_lowerback
    {
        OFFSET   0.000000   0.093605   0.000000
        CHANNELS 3 Xrotation Yrotation Zrotation
        JOINT lowerback_torso
        {
            OFFSET   0.000000   0.100000   0.000000
            CHANNELS 3 Xrotation Yrotation Zrotation
            JOINT torso_head
            {
                OFFSET   0.000000   0.282350   0.000000
                CHANNELS 3 Xrotation Yrotation Zrotation
                End Site
                {
                    OFFSET   0.000000   0.192650   0.000000
                }
            }
            JOINT rTorso_Clavicle
            {
                OFFSET  -0.001000   0.157500   0.000000
                CHANNELS 3 Xrotation Yrotation Zrotation
                JOINT rShoulder
                {
                    OFFSET  -0.117647   0.000000   0.000000
                    CHANNELS 3 Xrotation Yrotation Zrotation
                    JOINT rElbow
                    {
                        OFFSET  -0.245000   0.000000   0.000000
                        CHANNELS 3 Xrotation Yrotation Zrotation
                        JOINT rWrist
                        {
                            OFFSET  -0.240000   0.000000   0.000000
                            CHANNELS 3 Xrotation Yrotation Zrotation
                            End Site
                            {
                                OFFSET  -0.116353  -0.002500   0.000000
                            }
                        }
                    }
                }
            }
            JOINT lTorso_Clavicle
            {
                OFFSET   0.001000   0.157500   0.000000
                CHANNELS 3 Xrotation Yrotation Zrotation
                JOINT lShoulder
                {
                    OFFSET   0.117647   0.000000   0.000000
                    CHANNELS 3 Xrotation Yrotation Zrotation
                    JOINT lElbow
                    {
                        OFFSET   0.245000   0.000000   0.000000
                        CHANNELS 3 Xrotation Yrotation Zrotation
                        JOINT lWrist
                        {
                            OFFSET   0.240000   0.000000   0.000000
                            CHANNELS 3 Xrotation Yrotation Zrotation
                            End Site
                            {
                                OFFSET   0.116353  -0.002500   0.000000
                            }
                        }
                    }
                }
            }
        }
    }
    JOINT rHip
    {
        OFFSET  -0.100000  -0.051395   0.000000
        CHANNELS 3 Xrotation Yrotation Zrotation
        JOINT rKnee
        {
            OFFSET   0.000000  -0.410000   0.000000
            CHANNELS 3 Xrotation Yrotation Zrotation
            JOINT rAnkle
            {
                OFFSET   0.000000  -0.390000   0.000000
                CHANNELS 3 Xrotation Yrotation Zrotation
                JOINT rToeJoint
                {
                    OFFSET   0.000000  -0.050000   0.130000
                    CHANNELS 3 Xrotation Yrotation Zrotation
                    End Site
                    {
                        OFFSET  -0.010000   0.002000   0.060000
                    }
                }
            }
        }
    }
    JOINT lHip
    {
        OFFSET   0.100000  -0.051395   0.000000
        CHANNELS 3 Xrotation Yrotation Zrotation
        JOINT lKnee
        {
            OFFSET   0.000000  -0.410000   0.000000
            CHANNELS 3 Xrotation Yrotation Zrotation
            JOINT lAnkle
            {
                OFFSET   0.000000  -0.390000   0.000000
                CHANNELS 3 Xrotation Yrotation Zrotation
                JOINT lToeJoint
                {
                    OFFSET   0.000000  -0.050000   0.130000
                    CHANNELS 3 Xrotation Yrotation Zrotation
                    End Site
                    {
                        OFFSET   0.010000   0.002000   0.060000
                    }
                }
            }
        }
    }
}
MOTION
Frames: 14
Frame Time:   0.008333
 -2.376719   0.925631   3.975860   0.000000   0.000000   0.000000   0.000000   0.000000   0.000000   0.000000   0.000000   0.000000   0.000000   0.000000   0.000000   0.000000   0.000000   0.000000   0.000000   0.000000   0.000000   0.000000   0.000000   0.000000   0.000000   0.000000   0.000000   0.000000   0.000000   0.000000   0.000000   0.000000   0.000000   0.000000   0.000000   0.000000   0.000000   0.000000   0.000000   0.000000   0.000000   0.000000   0.000000   0.000000   0.000000   0.000000   0.000000   0.000000   0.000000   0.000000   0.000000   0.000000   0.000000   0.000000   0.000000   0.000000   0.000000   0.000000   0.000000   0.000000   0.000000   0.000000   0.000000
 -2.377161   0.926144   3.975096  -0.482737  -0.013009  -0.134198   0.740167   0.187740   0.005120   0.102686  -0.437014   0.019190  -0.199544  -0.386463   0.316075  -0.073670  -0.325691   0.418820   0.013522   0.541043   2.103499   0.038590   1.828930  -0.005322   0.143661  -0.990193  -2.917834   0.342509   0.547117  -0.231699   1.431380   0.255587  -1.947422   0.013968  -0.696512   0.013005   0.274604  -0.236034   2.610217   0.022551  -0.207249   0.315943   2.578098  -0.004219  -0.004846  -3.299719  -0.316221  -0.157146   0.195645  -0.000040  -0.000926  -1.009039   0.025179   0.112987   3.629123   0.000698   0.000430  -1.342979   0.579854   0.269354   0.001599  -0.000004   0.000008
 -2.377778   0.926912   3.974790  -1.107532  -0.239830  -0.303070   1.460918   0.493617  -0.011032   0.330742  -0.746890   0.059758  -0.330746  -0.774615   0.622737  -0.141364  -0.552206   1.553341  -0.010026   1.190121   4.788762   0.088977   3.627124  -0.008508   0.298405  -1.348359  -5.107836   0.690032   1.149440  -1.131213   2.863135   0.529205  -4.438862   0.031210  -1.337081   0.022071   0.627099  -0.554165   4.565920   0.444807  -0.399649   0.760833   5.385685  -0.011130  -0.013482  -6.386142  -0.603280  -0.313680   0.235826  -0.000073  -0.000993  -2.086907   0.063318   0.213998   7.417839   0.002440  -0.005912  -2.568192   1.124918   0.539071   0.073102  -0.000136   0.000228
 -2.378449   0.927523   3.974860  -1.713193  -0.631305  -0.476396   2.086285   0.886389  -0.045788   0.537678  -0.925558   0.099024  -0.440867  -1.139534   0.903959  -0.199315  -0.704376   3.114791  -0.075164   1.883112   7.850571   0.137936   5.328569  -0.008937   0.453616  -1.468814  -6.458497   1.026569   1.757465  -2.447975   4.291712   0.778541  -7.293376   0.047431  -1.920251   0.027536   0.975941  -0.826795   5.751890   1.128073  -0.573251   1.259180   8.144740  -0.019093  -0.023036  -9.261029  -0.862175  -0.469810   0.284155  -0.000127  -0.001150  -3.264780   0.094457   0.264690  10.966633   0.004119  -0.016214  -3.709801   1.626573   0.804471   0.153520  -0.000227   0.000278
 -2.379131   0.927691   3.975198  -2.270557  -1.146263  -0.649459   2.624992   1.341831  -0.092909   0.697929  -1.000362   0.132772  -0.545771  -1.480547   1.162499  -0.244904  -0.807018   4.911820  -0.183160   2.597443  11.165599   0.179649   6.926114  -0.007661   0.601707  -1.499085  -7.185115   1.353829   2.361390  -4.006881   5.722543   0.985326 -10.396940   0.060898  -2.453001   0.030442   1.308567  -1.045933   6.357824   2.009063  -0.725395   1.779347  10.807239  -0.027221  -0.031919 -11.941978  -1.096052  -0.625355   0.332132  -0.000180  -0.001308  -4.546766   0.120559   0.266387  14.233588   0.005063  -0.027607  -4.779552   2.087848   1.063579   0.217974  -0.000255   0.000200
 -2.379805   0.927204   3.975723  -2.779804  -1.757617  -0.823301   3.092761   1.842021  -0.147485   0.817098  -0.993144   0.161553  -0.647489  -1.798967   1.401445  -0.277507  -0.876175   6.819009  -0.334965   3.320153  14.651161   0.212008   8.420737  -0.005595   0.739341  -1.498247  -7.488467   1.674259   2.957592  -5.689013   7.158090   1.139154 -13.669766   0.071062  -2.940689   0.031607   1.621503  -1.216514   6.566223   3.048308  -0.853491   2.304167  13.364813  -0.034982  -0.039466 -14.442721  -1.307382  -0.779643   0.377718  -0.000222  -0.001438  -5.919934   0.144441   0.230385  17.231123   0.005094  -0.038466  -5.782782   2.512276   1.315018   0.265976  -0.000244   0.000084
 -2.380441   0.925900   3.976368  -3.246168  -2.442877  -1.001320   3.503681   2.374589  -0.201984   0.905151  -0.918646   0.195355  -0.745754  -2.096468   1.620621  -0.297124  -0.916076   8.784036  -0.524478   4.023658  18.161803   0.234429   9.818513  -0.003374   0.866389  -1.482614  -7.470323   1.989482   3.540718  -7.418968   8.598294   1.230699 -17.059178   0.078016  -3.388490   0.031626   1.914781  -1.347682   6.509984   4.214033  -0.956140   2.821866  15.816291  -0.041991  -0.045412 -16.775558  -1.498363  -0.931956   0.420486  -0.000252  -0.001532  -7.368139   0.167463   0.167967  19.979757   0.004382  -0.047893  -6.723587   2.903112   1.557820   0.300392  -0.000215  -0.000021
 -2.380674   0.923051   3.976112  -3.317876  -3.015588  -0.924455   3.722696   2.893959  -0.466918   0.951302  -0.900250   0.217187  -1.100451  -2.081794   1.596830  -0.244542  -0.865376  10.147557  -0.743818   4.672772  21.393140   0.257645  11.600408  -0.005627   0.883528  -1.768187  -6.284231   2.274617   4.122672  -8.495208  10.188537   1.002125 -20.357930   0.080564  -3.831419   0.032415   2.039852  -1.605097   5.216360   5.544937  -1.124262   2.935753  16.317060  -0.035734  -0.039163 -18.541699  -1.523902  -1.064943   0.682025  -0.000391  -0.003099  -9.660176   0.416575  -0.122639  23.142654   0.005495  -0.050114  -8.295177   3.445560   1.849505   0.306651  -0.000174  -0.000007
 -2.380734   0.918866   3.975228  -3.328434  -3.725615  -0.800552   4.031415   3.492326  -0.746541   1.010045  -0.791142   0.193571  -1.450228  -2.055398   1.556206  -0.243884  -0.702085  11.199300  -1.012819   5.357506  24.267674   0.264196  13.307262  -0.009972   0.936695  -1.845897  -5.204719   2.533667   4.626535  -9.314142  11.649330   0.690082 -23.307493   0.079651  -4.255426   0.032618   2.164713  -1.928110   3.970750   6.841019  -1.259324   2.885950  16.526750  -0.029308  -0.032793 -20.202149  -1.543382  -1.190041   0.923627  -0.000279  -0.004409 -12.098195   0.694763  -0.393574  26.063578   0.004166  -0.054123  -9.771829   3.949067   2.138883   0.262401  -0.000120  -0.000013
 -2.380724   0.913471   3.973997  -3.330586  -4.506075  -0.678103   4.408497   4.120002  -1.020705   1.109298  -0.616597   0.152421  -1.766945  -2.029347   1.517747  -0.295391  -0.461697  12.024884  -1.326522   6.053163  26.847774   0.260038  14.930308  -0.014883   1.016132  -1.761627  -4.379342   2.770903   5.078322  -9.953739  12.990570   0.329944 -25.960999   0.076439  -4.654489   0.032145   2.280259  -2.258782   2.946971   8.110360  -1.382523   2.753023  16.681316  -0.023898  -0.027422 -21.754288  -1.560511  -1.308455   1.143236  -0.000045  -0.005372 -14.564496   0.957359  -0.590042  28.723117   0.001034  -0.057866 -11.155383   4.411883   2.422889   0.215581  -0.000066   0.000031
 -2.380683   0.906965   3.972612  -3.334247  -5.301475  -0.565914   4.824986   4.750550  -1.289999   1.240265  -0.403231   0.102396  -2.050792  -2.004583   1.482893  -0.386215  -0.183046  12.683064  -1.672756   6.734152  29.183698   0.249230  16.466004  -0.019416   1.109353  -1.566710  -3.768260   2.992759   5.495858 -10.458596  14.225136  -0.053598 -28.362214   0.071807  -5.025859   0.031009   2.384941  -2.567963   2.116584   9.362673  -1.497612   2.569187  16.825456  -0.019483  -0.023063 -23.202959  -1.575292  -1.420930   1.346351   0.000232  -0.005992 -17.015920   1.197771  -0.710656  31.146910  -0.002743  -0.059932 -12.451555   4.837442   2.699403   0.169182  -0.000017   0.000089
 -2.380624   0.899424   3.971197  -3.341562  -6.076107  -0.464326   5.259510   5.369061  -1.555215   1.391485  -0.169338   0.046542  -2.306526  -1.981165   1.450868  -0.502590   0.106681  13.215730  -2.039015   7.382757  31.313154   0.234510  17.912541  -0.023129   1.207841  -1.306137  -3.318896   3.204815   5.890748 -10.860488  15.365130  -0.443657 -30.545917   0.066385  -5.368419   0.029312   2.479195  -2.839742   1.434378  10.599526  -1.605713   2.352758  16.970510  -0.015906  -0.019549 -24.554534  -1.587615  -1.527949   1.534751   0.000505  -0.006294 -19.426042   1.415756  -0.768181  33.361160  -0.006313  -0.059992 -13.665630   5.228959   2.966850   0.124184   0.000023   0.000141
 -2.380551   0.890912   3.969824  -3.353327  -6.808081  -0.372407   5.697984   5.966714  -1.815572   1.554660   0.072984  -0.012982  -2.538741  -1.959030   1.420969  -0.633140   0.390814  13.653002  -2.414663   7.989046  33.264665   0.217743  19.270376  -0.025898   1.306720  -1.013138  -2.989988   3.411064   6.269653 -11.183153  16.421015  -0.829608 -32.540207   0.060620  -5.682437   0.027208   2.564226  -3.066678   0.863944  11.817558  -1.707783   2.117297  17.119690  -0.013008  -0.016706 -25.815360  -1.597481  -1.629792   1.709408   0.000742  -0.006329 -21.775542   1.612791  -0.778141  35.389032  -0.009189  -0.058270 -14.802583   5.589277   3.224155   0.081003   0.000051   0.000176
 -2.379739   0.881365   3.968402  -3.190630  -7.936962  -0.042464   6.014672   6.647331  -2.188496   1.714632   0.391750  -0.130095  -2.828480  -2.017421   1.332501  -0.759166   0.690481  13.646862  -2.864409   8.623953  34.806147   0.203334  21.155606  -0.029263   1.305621  -0.964790  -1.966282   3.466576   6.893908 -11.138032  17.226557  -0.987093 -34.166584   0.054437  -6.045705   0.024312   2.643611  -3.425089  -0.541150  12.982842  -1.642181   1.240268  16.162163  -0.010681  -0.004622 -26.094450  -1.310891  -1.613511   2.192383   0.002577  -0.007878 -23.983564   1.952421  -0.820281  36.638267  -0.011853  -0.055559 -15.814108   5.793587   3.451670  -0.220081   0.000325   0.001665
